<?xml version="1.0" encoding="UTF-8"?>
<svg xmlns="http://www.w3.org/2000/svg" onmouseup="{ if(window.parent.document.onmouseup) window.parent.document.onmouseup(arguments[0]);}" xml:space="preserve" style="enable-background:new 0 0 149.1 65.8;" viewBox="0 0 149.1 65.8" y="0px" x="0px" id="Layer_1" version="1.1" xmlns:xlink="http://www.w3.org/1999/xlink"><style type="text/css">
	.st0{clip-path:url(#SVGID_00000159457518441791887660000010222135448703762108_);}
	.st1{clip-path:url(#SVGID_00000133517585052226854310000016435743092302536576_);}
	.st2{fill-rule:evenodd;clip-rule:evenodd;}
	.st3{clip-path:url(#SVGID_00000139998040280369256250000009356812063517410723_);}
	.st4{clip-path:url(#SVGID_00000020360198572935832760000000021415011391107715_);}
	.st5{clip-path:url(#SVGID_00000056394935683477253660000009396257955942611132_);}
	.st6{clip-path:url(#SVGID_00000099654257600630645890000007311277881141050755_);}
	.st7{clip-path:url(#SVGID_00000155839370582902340400000018083300013753604248_);}
	.st8{clip-path:url(#SVGID_00000183968995154802835760000009902371445567615371_);}
	.st9{clip-path:url(#SVGID_00000121244136669281427690000010156572531331712385_);}
	.st10{clip-path:url(#SVGID_00000160159886793420442570000017610516650887905469_);}
	.st11{clip-path:url(#SVGID_00000075126658466944868480000008424204095203617198_);}
	.st12{clip-path:url(#SVGID_00000134927901514771209050000015872338084111408538_);}
	.st13{fill:#8B1E41;}
	.st14{clip-path:url(#SVGID_00000129890032114052270710000005498323346331442830_);}
	.st15{clip-path:url(#SVGID_00000124140542410682366990000006680535066221862315_);}
	.st16{clip-path:url(#SVGID_00000013890169844125823290000006871507562812785564_);}
	.st17{clip-path:url(#SVGID_00000165955683989810043070000015184722107144505749_);}
	.st18{clip-path:url(#SVGID_00000145025659619886594750000015406695195360524199_);}
	.st19{clip-path:url(#SVGID_00000147898801292058949780000008588142765232365753_);}
	.st20{clip-path:url(#SVGID_00000134949263536569721870000008792519999874830776_);}
	.st21{clip-path:url(#SVGID_00000103245485718149275460000004264728020960039359_);}
	.st22{clip-path:url(#SVGID_00000037651301222514272890000006990424079051348622_);}
	.st23{clip-path:url(#SVGID_00000078014907166256682240000016391979894184025526_);}
	.st24{clip-path:url(#SVGID_00000047041186478574703730000018256581373146198431_);}
	.st25{clip-path:url(#SVGID_00000079470918999262154070000017792001633928956556_);}
	.st26{clip-path:url(#SVGID_00000149370410450292234830000001321987275826207671_);}
</style><g><g><defs><rect data-cppathid="10000" height="65.8" width="149.1" id="SVGID_1_"/></defs><clipPath id="SVGID_00000022533298843964499170000016308406455966540976_"><use style="overflow:visible;" xlink:href="#SVGID_1_"/></clipPath><g style="clip-path:url(#SVGID_00000022533298843964499170000016308406455966540976_);"><path data-cppathid="10001" d="M17.5,51.9c-0.1-2.1,1.4-1.4,1.4-1.9c0-0.1-0.1-0.2-0.2-0.2c-0.3,0-0.4,0.1-0.9,0.1c-0.1,0-0.7-0.1-0.8-0.1     c-0.2,0-0.4,0.4-0.5,0.6l-4.2,8.5c-0.3,0.6-0.5,1-0.6,1s-0.2-0.2-0.4-0.5l-4.2-9.1C7,50.1,7,49.8,6.7,49.8s-0.6,0.1-1,0.1     c-0.3,0-0.7-0.1-1-0.1c-0.2,0-0.3,0-0.3,0.2c0,0.6,1.7-0.4,1.7,3.8c0,1.9-0.2,3.8-0.4,6.7c-0.1,1.9-1.3,1.1-1.3,1.7     c0,0.1,0.1,0.2,0.2,0.2c0.3,0,0.6-0.1,1.6-0.1c0.5,0,1.3,0.1,1.6,0.1s0.4,0,0.4-0.2c0-0.6-1.7,0.1-1.6-2.2l0.2-6.3     c0-0.2,0.1-0.3,0.1-0.3c0.1,0,0.2,0.1,0.2,0.2l3.8,7.9c0.1,0.1,0.2,0.5,0.4,0.5s0.5-0.7,0.6-0.9l3.7-7.5c0.2-0.4,0.3-0.5,0.5-0.5     c0.1,0,0.2,0.3,0.2,0.7l0.2,6.9c0,1.3-1.1,0.9-1.1,1.5c0,0.1,0,0.2,0.2,0.2c0.4,0,1-0.1,1.6-0.1c0.7,0,1.3,0.1,1.7,0.1     c0.2,0,0.4,0,0.4-0.2c0-0.6-1.3,0-1.4-1.5L17.5,51.9z"/></g></g></g><g><g><defs><rect data-cppathid="10002" height="65.8" width="149.1" id="SVGID_00000072976771752751424800000017470431226331631257_"/></defs><clipPath id="SVGID_00000010302573383848928170000001148994789447935419_"><use style="overflow:visible;" xlink:href="#SVGID_00000072976771752751424800000017470431226331631257_"/></clipPath><g style="clip-path:url(#SVGID_00000010302573383848928170000001148994789447935419_);"><path data-cppathid="10003" d="M25.7,50.2c3.5,0,5.7,3.2,5.7,6.4S29.3,62,26.7,62c-3.5,0-5.7-3.2-5.7-6.5C21,52.7,22.7,50.2,25.7,50.2      M25.9,62.5c4,0,6.7-2.6,6.7-6.6c0-3.7-2.8-6.3-6.4-6.3s-6.5,2.7-6.5,6.4S22,62.5,25.9,62.5" class="st2"/></g></g></g><g><g><defs><rect data-cppathid="10004" height="65.8" width="149.1" id="SVGID_00000155147205558575577890000002159673593299330962_"/></defs><clipPath id="SVGID_00000032633898795700078180000001136988621701474963_"><use style="overflow:visible;" xlink:href="#SVGID_00000155147205558575577890000002159673593299330962_"/></clipPath><g style="clip-path:url(#SVGID_00000032633898795700078180000001136988621701474963_);"><path data-cppathid="10005" d="M35.6,51.2c0-1.3,1.2-0.8,1.2-1.3c0-0.2-0.5-0.2-0.6-0.2c-0.6,0-1.1,0.1-1.7,0.1c-0.5,0-0.9-0.1-1.4-0.1     c-0.1,0-0.4,0.1-0.4,0.2c0,0.6,1.4,0.1,1.4,1.2v6c0,2.7,0.9,5.4,5.6,5.4c5.2,0,5-4.4,5-5.3v-5.5c0-1.6,1.1-1.2,1.1-1.7     c0-0.1-0.1-0.2-0.2-0.2c-0.3,0-0.6,0.1-1,0.1c-0.7,0-1.4-0.1-2.1-0.1c-0.1,0-0.2,0.1-0.2,0.2c0,0.7,1.7-0.1,1.7,1.7v5.8     c0,2.1-0.8,4.3-4.1,4.3c-2.4,0-4.3-1.3-4.3-4.1C35.6,57.7,35.6,51.2,35.6,51.2z"/></g></g></g><g><g><defs><rect data-cppathid="10006" height="65.8" width="149.1" id="SVGID_00000054978642095901914190000004645895113281067952_"/></defs><clipPath id="SVGID_00000072999675885841583310000017077240650122782851_"><use style="overflow:visible;" xlink:href="#SVGID_00000054978642095901914190000004645895113281067952_"/></clipPath><g style="clip-path:url(#SVGID_00000072999675885841583310000017077240650122782851_);"><path data-cppathid="10007" d="M48,59.9c0,2.5-1.6,1.7-1.6,2.3c0,0.1,0,0.2,0.2,0.2c0.1,0,1.1-0.1,1.7-0.1c0.9,0,1.4,0.1,1.8,0.1c0.2,0,0.2-0.1,0.2-0.2     c0-0.5-1.6,0.1-1.6-1.5v-7.3c0-0.4,0.1-0.4,0.1-0.4c0.1,0,0.3,0.3,0.4,0.3l7.7,8.6c0.4,0.4,0.6,0.5,0.7,0.5s0.2-0.2,0.2-0.8V51.3     c0-1.3,1.1-1,1.1-1.4c0-0.1-0.1-0.2-0.2-0.2c-0.4,0-1.2,0.1-1.8,0.1s-1.1-0.1-1.6-0.1c-0.1,0-0.2,0.1-0.2,0.2c0,0.6,2-0.1,2,2.2     v7.4c0,0.1,0,0.2-0.1,0.2l-0.2-0.2L48.3,50c-0.1-0.1-0.3-0.4-0.5-0.4c-0.3,0-0.6,0.1-0.8,0.1c-0.3,0-0.6-0.1-0.8-0.1     c-0.1,0-0.3,0.1-0.3,0.2c0,0.7,2.2-0.4,2.2,3.3v6.8L48,59.9L48,59.9z"/></g></g></g><g><g><defs><rect data-cppathid="10008" height="65.8" width="149.1" id="SVGID_00000155835861060121186010000009738963086072214973_"/></defs><clipPath id="SVGID_00000116922750755949969510000002092051433632018076_"><use style="overflow:visible;" xlink:href="#SVGID_00000155835861060121186010000009738963086072214973_"/></clipPath><g style="clip-path:url(#SVGID_00000116922750755949969510000002092051433632018076_);"><path data-cppathid="10009" d="M64.5,60.8c0,1.1-1.4,0.9-1.4,1.3c0,0.2,0.1,0.2,0.2,0.2s0.4-0.1,2.4-0.1c0.5,0,1,0.1,1.4,0.1c0.2,0,0.2-0.2,0.2-0.2     c0-0.6-1.4,0-1.4-1.5v-9.1c0-0.9-0.1-0.9,0.7-0.9h2.5c1.8,0,0.9,1.4,1.5,1.4c0.2,0,0.2-0.2,0.2-0.4l-0.1-1.4     c0-0.4-0.1-0.5-0.5-0.5s-2,0.1-5.2,0.1c-2.3,0-3.7-0.1-5.1-0.1c-0.3,0-0.3,0.5-0.3,0.7l-0.2,1.7c0,0.1,0.1,0.2,0.2,0.2     c0.2,0,0.2-0.2,0.3-0.4c0.3-1,0.4-1.2,1.5-1.2h2.9c0.2,0,0.2,0.7,0.2,0.8L64.5,60.8L64.5,60.8z"/></g></g></g><g><g><defs><rect data-cppathid="10010" height="65.8" width="149.1" id="SVGID_00000152239028706795974980000005386735857952005252_"/></defs><clipPath id="SVGID_00000137128058624656847690000002101176774381189788_"><use style="overflow:visible;" xlink:href="#SVGID_00000152239028706795974980000005386735857952005252_"/></clipPath><g style="clip-path:url(#SVGID_00000137128058624656847690000002101176774381189788_);"><path data-cppathid="10011" d="M75,56.3c0,3.7,2.6,6.2,6.3,6.2c4,0,5.3-1.3,5.3-1.4l0.4-1.8c0-0.1-0.1-0.2-0.2-0.2s-0.2,0.1-0.3,0.2     c-0.3,0.8-2,2.6-4.8,2.6c-3.4,0-5.2-3.1-5.2-6.2c0-3.3,1.7-5.6,5.2-5.6c2.3,0,3.6,1.2,4.7,3.1c0.1,0.1,0.2,0.6,0.4,0.6     c0.3,0,0.1-0.6,0.1-1.5c-0.1-1.2-0.1-1.4-0.2-1.4c-0.2,0-0.3,0.2-0.4,0.2c-0.5,0-1.4-1.4-4.8-1.4C77.6,49.6,75,52.6,75,56.3"/></g></g></g><g><g><defs><rect data-cppathid="10012" height="65.8" width="149.1" id="SVGID_00000101069756046787796200000000825762630182434180_"/></defs><clipPath id="SVGID_00000018936420335900631210000004866020429089918102_"><use style="overflow:visible;" xlink:href="#SVGID_00000101069756046787796200000000825762630182434180_"/></clipPath><g style="clip-path:url(#SVGID_00000018936420335900631210000004866020429089918102_);"><path data-cppathid="10013" d="M93.3,52c0.1-0.2,0.2-0.2,0.3,0l1.7,4.3c0.1,0.2,0.1,0.4-0.3,0.4h-3.5c-0.2,0-0.4-0.1-0.2-0.3L93.3,52z      M96.7,59.6c0.2,0.5,0.6,1.3,0.6,1.7c0,0.7-1.1,0.5-1.1,0.9c0,0.2,0.3,0.2,0.4,0.2c0.5,0,1-0.1,1.4-0.1c0.7,0,1.5,0.1,2.2,0.1     c0.1,0,0.3,0,0.3-0.2c0-0.4-1-0.1-1.6-0.9c-0.4-0.6-0.6-1.4-0.9-2l-3.7-9.2c-0.1-0.1-0.2-0.7-0.4-0.7s-0.3,0.3-1.3,2.5L88.3,61     c-0.5,1-1.3,0.7-1.3,1.1c0,0.1,0.1,0.2,0.2,0.2c0.5,0,0.9-0.1,1.4-0.1s1,0.1,1.5,0.1c0.2,0,0.5,0.1,0.5-0.3     c0-0.5-1.3,0.1-1.3-1.2c0-0.2,0.1-0.5,0.1-0.6l1.1-2.5c0.2-0.4,0.5-0.4,0.8-0.4h3.9c0.5,0,0.6,0.3,0.8,0.7L96.7,59.6z" class="st2"/></g></g></g><g><g><defs><rect data-cppathid="10014" height="65.8" width="149.1" id="SVGID_00000116931462530896072320000004657845815750124465_"/></defs><clipPath id="SVGID_00000160163115940718746530000012783393863239390122_"><use style="overflow:visible;" xlink:href="#SVGID_00000116931462530896072320000004657845815750124465_"/></clipPath><g style="clip-path:url(#SVGID_00000160163115940718746530000012783393863239390122_);"><path data-cppathid="10015" d="M106.9,55.9c1.2-0.5,2.2-1.7,2.2-3.1c0-3.4-3.9-3.1-4.2-3.1c-0.9,0-1.9,0.1-3,0.1c-0.9,0-0.8-0.1-1.1-0.1     c-0.2,0-0.4,0.1-0.4,0.2c0,0.6,1.5-0.1,1.5,1.6v9.1c0,1.4-1.3,1.1-1.3,1.6c0,0.1,0.1,0.2,0.2,0.2c0.7,0,1.4-0.1,2-0.1     c1.5,0,1.9,0.1,2,0.1s0.3,0,0.3-0.1c0-0.6-1.9-0.1-1.9-1.6v-3.8c0-0.2-0.1-0.5,0.5-0.5c2,0,1.7-0.1,2.4,0.9l2,3.1     c0.7,1,1.4,1.9,2.7,1.9c0.2,0,1.2,0,1.2-0.2c0-0.4-0.9,0.2-2.2-1.7C109.8,60.4,106.9,55.9,106.9,55.9z M103.4,51     c0-0.7,0.4-0.7,1-0.7c1.7,0,3.4,0.7,3.4,2.9s-1.7,2.5-2.5,2.5s-1.9,0.1-1.9-0.2V51z" class="st2"/></g></g></g><g><g><defs><rect data-cppathid="10016" height="65.8" width="149.1" id="SVGID_00000181806345070189760860000003884919668007738797_"/></defs><clipPath id="SVGID_00000054984801941315882860000010488326955864212137_"><use style="overflow:visible;" xlink:href="#SVGID_00000181806345070189760860000003884919668007738797_"/></clipPath><g style="clip-path:url(#SVGID_00000054984801941315882860000010488326955864212137_);"><path data-cppathid="10017" d="M125.1,51.9c-0.1-2.1,1.4-1.4,1.4-1.9c0-0.1-0.1-0.2-0.2-0.2c-0.3,0-0.4,0.1-0.9,0.1c-0.1,0-0.7-0.1-0.8-0.1     c-0.2,0-0.4,0.4-0.5,0.6l-4.2,8.5c-0.3,0.6-0.5,1-0.6,1s-0.2-0.2-0.4-0.5l-4.2-9.1c-0.1-0.2-0.1-0.5-0.4-0.5s-0.6,0.1-1,0.1     c-0.3,0-0.7-0.1-1-0.1c-0.2,0-0.3,0-0.3,0.2c0,0.6,1.7-0.4,1.7,3.8c0,1.9-0.2,3.8-0.4,6.7c-0.1,1.9-1.3,1.1-1.3,1.7     c0,0.1,0.1,0.2,0.2,0.2c0.3,0,0.6-0.1,1.6-0.1c0.5,0,1.3,0.1,1.6,0.1c0.2,0,0.4,0,0.4-0.2c0-0.6-1.7,0.1-1.6-2.2l0.2-6.3     c0-0.2,0.1-0.3,0.1-0.3c0.1,0,0.2,0.1,0.2,0.2l3.8,7.9c0.1,0.1,0.2,0.5,0.4,0.5s0.5-0.7,0.6-0.9l3.7-7.5c0.2-0.4,0.3-0.5,0.5-0.5     c0.1,0,0.2,0.3,0.2,0.7l0.2,6.9c0,1.3-1.1,0.9-1.1,1.5c0,0.1,0,0.2,0.2,0.2c0.4,0,1-0.1,1.6-0.1c0.7,0,1.3,0.1,1.7,0.1     c0.2,0,0.4,0,0.4-0.2c0-0.6-1.3,0-1.4-1.5L125.1,51.9L125.1,51.9z"/></g></g></g><g><g><defs><rect data-cppathid="10018" height="65.8" width="149.1" id="SVGID_00000084504439618245510540000014369985152732610492_"/></defs><clipPath id="SVGID_00000068653885148989651960000017795158270091373211_"><use style="overflow:visible;" xlink:href="#SVGID_00000084504439618245510540000014369985152732610492_"/></clipPath><g style="clip-path:url(#SVGID_00000068653885148989651960000017795158270091373211_);"><path data-cppathid="10019" d="M130.1,51.6c0-1.2,0-1.1,1.7-1.1c0.7,0,2.6-0.1,3,0.5c0.3,0.4,0,1.3,0.4,1.3c0.1,0,0.4-0.1,0.4-2.1c0-0.2,0-0.4-0.2-0.4     c-0.6,0-2.2,0.1-2.5,0.1c-0.7,0-1.7-0.1-5-0.1c-0.5,0-0.6,0.1-0.6,0.2c0,0.2,0.4,0.2,0.5,0.3c1,0.1,1,1,1,1.8v8.1     c0,0.8,0,1.3-0.5,1.6c-0.6,0.3-0.7,0.3-0.8,0.5c0,0.1,0.1,0.2,0.3,0.2c0.7,0,1.5-0.1,2.2-0.1c1.4,0,2.7,0.1,4.1,0.1     c0.8,0,1.2,0,1.7-0.6c0.4-0.5,0.9-1.1,0.9-1.7c0,0,0-0.2-0.1-0.2c-0.2,0-0.8,1.8-5,1.8c-1.5,0-1.4-0.4-1.4-1.5V57     c0-0.3-0.1-0.6,0.3-0.6h2.6c1.5,0,0.9,1.6,1.4,1.6c0.1,0,0.2-0.1,0.2-0.2v-3.2c0-0.1-0.1-0.3-0.2-0.3c-0.4,0,0.1,1.4-1.8,1.4     h-1.9c-0.5,0-0.7-0.2-0.7-0.6L130.1,51.6L130.1,51.6L130.1,51.6z"/></g></g></g><g><g><defs><rect data-cppathid="10020" height="65.8" width="149.1" id="SVGID_00000177475020987649156530000000603233438565832866_"/></defs><clipPath id="SVGID_00000149377241721508282620000006761774601936951736_"><use style="overflow:visible;" xlink:href="#SVGID_00000177475020987649156530000000603233438565832866_"/></clipPath><g style="clip-path:url(#SVGID_00000149377241721508282620000006761774601936951736_);"><path data-cppathid="10021" d="M139.5,51.5c0-1.5,1.3-1.1,1.3-1.5c0-0.2-0.1-0.3-0.3-0.3c-0.3,0-0.7,0.1-1.7,0.1c-0.9,0-1.4-0.1-1.8-0.1     c-0.2,0-0.4,0-0.4,0.2c0,0.4,1.5,0.2,1.5,1.2v9c0,0.8,0,1.3-0.5,1.6c-0.6,0.3-0.7,0.3-0.8,0.5c0,0.1,0.1,0.2,0.3,0.2     c0.7,0,1.5-0.1,2.2-0.1c1.4,0,2.7,0.1,4.1,0.1c0.8,0,1.2,0,1.7-0.6c0.4-0.5,0.9-1.1,0.9-1.7c0,0,0-0.2-0.1-0.2     c-0.2,0-0.8,1.8-5,1.8c-1.5,0-1.4-0.4-1.4-1.5V51.5z"/></g></g></g><g><g><defs><rect data-cppathid="10022" height="65.8" width="149.1" id="SVGID_00000122712139643748124730000000488905600206043555_"/></defs><clipPath id="SVGID_00000106855099341207861210000009507532745926632068_"><use style="overflow:visible;" xlink:href="#SVGID_00000122712139643748124730000000488905600206043555_"/></clipPath><g style="clip-path:url(#SVGID_00000106855099341207861210000009507532745926632068_);"><path data-cppathid="10023" d="M50.9,27.7v5.6h-16c0,0,0.4-1.8,0.6-2.8c0.2-0.7,0.8-2.8,0.8-2.8H50.9z" class="st13"/></g></g></g><g><g><defs><rect data-cppathid="10024" height="65.8" width="149.1" id="SVGID_00000138550694595152241740000000483835664336114320_"/></defs><clipPath id="SVGID_00000117677425788289758530000012256841444646832812_"><use style="overflow:visible;" xlink:href="#SVGID_00000138550694595152241740000000483835664336114320_"/></clipPath><g style="clip-path:url(#SVGID_00000117677425788289758530000012256841444646832812_);"><path data-cppathid="10025" d="M50.9,34.3v5.6H34.2c0,0,0.1-2,0.2-3c0.1-0.7,0.3-2.6,0.3-2.6H50.9z" class="st13"/></g></g></g><g><g><defs><rect data-cppathid="10026" height="65.8" width="149.1" id="SVGID_00000080884683689993456200000005257825804202234038_"/></defs><clipPath id="SVGID_00000099621448645820561240000005133064682544978332_"><use style="overflow:visible;" xlink:href="#SVGID_00000080884683689993456200000005257825804202234038_"/></clipPath><g style="clip-path:url(#SVGID_00000099621448645820561240000005133064682544978332_);"><path data-cppathid="10027" d="M66.9,12.9h7V0c0,0-2.2,0.1-3.6,0.2c-1.3,0.1-3.4,0.5-3.4,0.5V12.9z" class="st13"/></g></g></g><g><g><defs><rect data-cppathid="10028" height="65.8" width="149.1" id="SVGID_00000112631034876535928930000016688187930970640564_"/></defs><clipPath id="SVGID_00000103961707132148488520000009698362238787058575_"><use style="overflow:visible;" xlink:href="#SVGID_00000112631034876535928930000016688187930970640564_"/></clipPath><g style="clip-path:url(#SVGID_00000103961707132148488520000009698362238787058575_);"><path data-cppathid="10029" d="M66.9,27.7v-6.6L52.5,6.7c0,0-1.1,0.8-1.8,1.3c-0.8,0.6-2,1.6-2,1.6L66.9,27.7z" class="st13"/></g></g></g><g><g><defs><rect data-cppathid="10030" height="65.8" width="149.1" id="SVGID_00000181049978515197974020000012805746993487773084_"/></defs><clipPath id="SVGID_00000056404501790233507610000013059537266068127678_"><use style="overflow:visible;" xlink:href="#SVGID_00000181049978515197974020000012805746993487773084_"/></clipPath><g style="clip-path:url(#SVGID_00000056404501790233507610000013059537266068127678_);"><path data-cppathid="10031" d="M65.5,27.7L48,10.2l-1.6,1.6l-1.7,1.7L59,27.8L65.5,27.7L65.5,27.7z" class="st13"/></g></g></g><g><g><defs><rect data-cppathid="10032" height="65.8" width="149.1" id="SVGID_00000168112722944341020640000008880161347925309340_"/></defs><clipPath id="SVGID_00000030447460716834031510000014988139373925505172_"><use style="overflow:visible;" xlink:href="#SVGID_00000168112722944341020640000008880161347925309340_"/></clipPath><g style="clip-path:url(#SVGID_00000030447460716834031510000014988139373925505172_);"><path data-cppathid="10033" d="M57.6,27.7L44.1,14.2c0,0-0.9,1.1-1.5,1.8c-0.6,0.7-1.5,1.9-1.5,1.9l9.8,9.8H57.6z" class="st13"/></g></g></g><g><g><defs><rect data-cppathid="10034" height="65.8" width="149.1" id="SVGID_00000183228816794790467670000007100122769823751864_"/></defs><clipPath id="SVGID_00000150076560336786021350000005275151100895213702_"><use style="overflow:visible;" xlink:href="#SVGID_00000183228816794790467670000007100122769823751864_"/></clipPath><g style="clip-path:url(#SVGID_00000150076560336786021350000005275151100895213702_);"><path data-cppathid="10035" d="M66.9,19.6V13l-9.3-9.3c0,0-1.3,0.7-2.1,1.1C54.7,5.3,53.4,6,53.4,6L66.9,19.6z" class="st13"/></g></g></g><g><g><defs><rect data-cppathid="10036" height="65.8" width="149.1" id="SVGID_00000168087979195263811390000006457187938862449542_"/></defs><clipPath id="SVGID_00000166660639300581872580000002591912283673283500_"><use style="overflow:visible;" xlink:href="#SVGID_00000168087979195263811390000006457187938862449542_"/></clipPath><g style="clip-path:url(#SVGID_00000166660639300581872580000002591912283673283500_);"><path data-cppathid="10037" d="M97.8,27.7v5.6h16c0,0-0.4-1.8-0.6-2.8c-0.2-0.7-0.8-2.8-0.8-2.8H97.8z" class="st13"/></g></g></g><g><g><defs><rect data-cppathid="10038" height="65.8" width="149.1" id="SVGID_00000145747336674584394920000015447667628927378836_"/></defs><clipPath id="SVGID_00000032635316481317911690000008907262606061317511_"><use style="overflow:visible;" xlink:href="#SVGID_00000145747336674584394920000015447667628927378836_"/></clipPath><g style="clip-path:url(#SVGID_00000032635316481317911690000008907262606061317511_);"><path data-cppathid="10039" d="M97.9,34.4V40h16.7c0,0-0.1-2-0.2-3c-0.1-0.7-0.3-2.6-0.3-2.6H97.9z" class="st13"/></g></g></g><g><g><defs><rect data-cppathid="10040" height="65.8" width="149.1" id="SVGID_00000136384975776249915000000002450539950531109761_"/></defs><clipPath id="SVGID_00000124162219490985632940000007911849134700248249_"><use style="overflow:visible;" xlink:href="#SVGID_00000136384975776249915000000002450539950531109761_"/></clipPath><g style="clip-path:url(#SVGID_00000124162219490985632940000007911849134700248249_);"><path data-cppathid="10041" d="M81.9,13h-7V0.1c0,0,2.2,0.1,3.6,0.2c1.3,0.1,3.4,0.5,3.4,0.5V13z" class="st13"/></g></g></g><g><g><defs><rect data-cppathid="10042" height="65.8" width="149.1" id="SVGID_00000163048941133536250360000005033428732918451846_"/></defs><clipPath id="SVGID_00000119825864391264367160000003416999633279827646_"><use style="overflow:visible;" xlink:href="#SVGID_00000163048941133536250360000005033428732918451846_"/></clipPath><g style="clip-path:url(#SVGID_00000119825864391264367160000003416999633279827646_);"><path data-cppathid="10043" d="M81.8,27.7v-6.6L96.2,6.7c0,0,1.1,0.8,1.8,1.3c0.8,0.6,2,1.6,2,1.6L81.8,27.7z" class="st13"/></g></g></g><g><g><defs><rect data-cppathid="10044" height="65.8" width="149.1" id="SVGID_00000091721027775040789300000011377833034628469152_"/></defs><clipPath id="SVGID_00000147202139605655571650000006736882419383100550_"><use style="overflow:visible;" xlink:href="#SVGID_00000091721027775040789300000011377833034628469152_"/></clipPath><g style="clip-path:url(#SVGID_00000147202139605655571650000006736882419383100550_);"><path data-cppathid="10045" d="M83.3,27.7l17.5-17.5l1.6,1.6l1.7,1.7L89.8,27.8L83.3,27.7L83.3,27.7z" class="st13"/></g></g></g><g><g><defs><rect data-cppathid="10046" height="65.8" width="149.1" id="SVGID_00000101086500458571905980000018290010328239436680_"/></defs><clipPath id="SVGID_00000159438561926854504110000008587566483713147291_"><use style="overflow:visible;" xlink:href="#SVGID_00000101086500458571905980000018290010328239436680_"/></clipPath><g style="clip-path:url(#SVGID_00000159438561926854504110000008587566483713147291_);"><path data-cppathid="10047" d="M91.2,27.7l13.5-13.5c0,0,0.9,1.1,1.5,1.8s1.5,1.9,1.5,1.9l-9.8,9.8H91.2z" class="st13"/></g></g></g><g><g><defs><rect data-cppathid="10048" height="65.8" width="149.1" id="SVGID_00000054256914818274684570000000153061282510994100_"/></defs><clipPath id="SVGID_00000060021719486489481660000006587333629681660848_"><use style="overflow:visible;" xlink:href="#SVGID_00000054256914818274684570000000153061282510994100_"/></clipPath><g style="clip-path:url(#SVGID_00000060021719486489481660000006587333629681660848_);"><path data-cppathid="10049" d="M81.9,19.6V13l9.3-9.3c0,0,1.3,0.7,2.1,1.1C94.1,5.3,95.4,6,95.4,6L81.9,19.6z" class="st13"/></g></g></g></svg>